<svg width="27" height="26" viewBox="0 0 27 26" fill="none" xmlns="http://www.w3.org/2000/svg">
    <path d="M26.7676 22.3889C26.7676 24.3837 25.1513 26 23.1565 26H4.3787C2.38463 26 0.767578 24.3837 0.767578 22.3889V3.61113C0.767578 1.61633 2.38463 0 4.3787 0H23.1565C25.1513 0 26.7676 1.61633 26.7676 3.61113V22.3889Z" fill="#3678EA"/>
    <path d="M17.32589980392456,12.643700371551514 L14.92539980392456,12.643700371551514 L14.92539980392456,21.909000371551514 L11.361799803924562,21.909000371551514 L11.361799803924562,12.643700371551514 L9.22369980392456,12.643700371551514 L9.22369980392456,9.792800371551515 L11.361799803924562,9.792800371551515 L11.361799803924562,8.075100371551514 C11.363299803924562,5.574900371551514 12.401699803924561,4.091000371551514 15.34739980392456,4.091000371551514 L17.776299803924562,4.091000371551514 L17.776299803924562,6.9419003715515135 L16.14629980392456,6.9419003715515135 C14.99959980392456,6.9419003715515135 14.92539980392456,7.3695003715515135 14.92539980392456,8.169900371551513 L14.92539980392456,9.792800371551515 L17.776299803924562,9.792800371551515 L17.32589980392456,12.643700371551514 z" fill="white"/>
</svg>
